<?xml version="1.0" encoding="UTF-8" standalone="no"?>
<!-- Created with Inkscape (http://www.inkscape.org/) -->

<svg
   width="17.019836mm"
   height="13.178543mm"
   viewBox="0 0 17.019836 13.178543"
   version="1.1"
   id="svg5"
   xml:space="preserve"
   xmlns:inkscape="http://www.inkscape.org/namespaces/inkscape"
   xmlns:sodipodi="http://sodipodi.sourceforge.net/DTD/sodipodi-0.dtd"
   xmlns="http://www.w3.org/2000/svg"
   xmlns:svg="http://www.w3.org/2000/svg"><sodipodi:namedview
     id="namedview7"
     pagecolor="#505050"
     bordercolor="#eeeeee"
     borderopacity="1"
     inkscape:showpageshadow="0"
     inkscape:pageopacity="0"
     inkscape:pagecheckerboard="0"
     inkscape:deskcolor="#505050"
     inkscape:document-units="mm"
     showgrid="false" /><defs
     id="defs2" /><g
     inkscape:label="Vrstva 1"
     inkscape:groupmode="layer"
     id="layer1"
     transform="translate(-182.34011,-203.71183)"><path
       style="fill:#000000;stroke-width:0.352778"
       d="m 183.95285,216.36908 c -0.61577,-0.26972 -1.23503,-0.85208 -1.37613,-1.29414 -0.1411,-0.44205 -0.2472,-1.46157 -0.23577,-2.26561 0.0114,-0.80403 0.19412,-1.78578 0.40599,-2.18166 0.21187,-0.39589 0.38522,-1.0345 0.38522,-1.41914 0,-0.38465 0.16033,-0.75279 0.35628,-0.81811 0.19595,-0.0653 0.42421,-0.47157 0.50726,-0.90278 0.083,-0.43122 0.35928,-1.03363 0.61386,-1.33869 0.25459,-0.30507 0.78038,-0.87979 1.16844,-1.27716 0.38805,-0.39737 1.06337,-0.86231 1.5007,-1.0332 0.50284,-0.19648 1.11885,-0.16321 1.67569,0.0905 0.4843,0.22066 0.88055,0.5251 0.88055,0.67653 0,0.15143 -0.16804,0.37919 -0.37343,0.50613 -0.21047,0.13007 -0.27814,0.66467 -0.15507,1.225 0.176,0.8013 0.0773,1.03897 -0.50851,1.22491 -0.57165,0.18143 -0.72688,0.52697 -0.72688,1.61804 0,0.7906 0.17032,1.38734 0.39597,1.38734 0.27359,0 0.26023,0.16356 -0.0432,0.52916 -0.30342,0.36561 -0.31677,0.52917 -0.0432,0.52917 0.21779,0 0.39598,0.18821 0.39598,0.41824 0,0.23003 0.33413,0.7739 0.74251,1.2086 0.40839,0.43471 0.63787,0.9597 0.50997,1.16664 -0.15474,0.25039 -0.6918,0.14198 -1.60526,-0.32403 -0.75499,-0.38517 -1.45228,-0.57158 -1.54952,-0.41424 -0.0972,0.15735 0.3556,0.4786 1.00631,0.7139 0.77431,0.27999 1.15334,0.63074 1.09692,1.01509 -0.0474,0.323 -0.28463,0.65342 -0.52717,0.73427 -0.24254,0.0808 -1.06737,-0.13547 -1.83296,-0.48071 -1.14517,-0.51639 -1.4681,-0.54552 -1.82125,-0.16431 -0.32867,0.35479 -0.32956,0.40729 -0.004,0.22403 0.23399,-0.13165 0.98805,-0.004 1.67569,0.28302 0.68764,0.28731 1.25025,0.60986 1.25025,0.71678 0,0.10691 -0.59531,0.18144 -1.32291,0.16561 -0.72761,-0.0158 -1.82674,-0.24946 -2.44251,-0.51919 z m 1.57306,-5.39501 c 0.24941,-0.15825 0.548,-0.87019 0.66352,-1.5821 0.13269,-0.81765 0.0705,-1.29437 -0.16888,-1.29437 -0.20841,0 -0.62606,0.35283 -0.9281,0.78406 -0.30205,0.43122 -0.54918,1.1456 -0.54918,1.5875 0,0.44189 0.11907,0.80101 0.26459,0.79804 0.14552,-0.003 0.46864,-0.13488 0.71805,-0.29313 z m 7.98747,3.55633 c -0.20818,-0.14255 -0.483,-0.54217 -0.61071,-0.88805 -0.17281,-0.46804 -0.55525,-0.6071 -1.49547,-0.54378 -0.76825,0.0517 -1.38025,-0.10418 -1.56178,-0.39791 -0.17368,-0.28101 -0.13415,-0.74616 0.0945,-1.11233 0.32176,-0.51524 0.21994,-0.78977 -0.56155,-1.51403 -0.52502,-0.48657 -0.95458,-1.05493 -0.95458,-1.26303 0,-0.20809 0.41349,-0.53556 0.91886,-0.7277 0.76525,-0.29095 0.88066,-0.50154 0.69037,-1.25973 -0.12568,-0.50072 -0.0531,-1.12176 0.16132,-1.38009 0.24839,-0.29929 0.81132,-0.4013 1.55164,-0.28116 0.96913,0.15727 1.19407,0.0652 1.35624,-0.55489 0.12053,-0.46091 0.4784,-0.74343 0.94172,-0.74343 0.47253,0 0.87061,0.32428 1.08263,0.88194 0.18442,0.48507 0.42906,0.88195 0.54363,0.88195 0.11457,0 0.49539,-0.15364 0.84627,-0.34143 0.47227,-0.25275 0.7823,-0.18193 1.19368,0.27264 0.36201,0.40001 0.44755,0.7891 0.24541,1.11617 -0.18227,0.29492 -0.16979,0.76468 0.0303,1.13847 0.18732,0.35 0.57312,0.63637 0.85733,0.63637 0.28422,0 0.51676,0.27185 0.51676,0.60411 0,0.33226 -0.41831,0.93765 -0.92957,1.34532 -0.78394,0.62509 -0.86862,0.85509 -0.54052,1.46815 0.31373,0.58621 0.26143,0.84244 -0.27013,1.3235 -0.43248,0.39139 -0.73905,0.46732 -0.89141,0.22079 -0.12774,-0.20667 -0.5443,-0.37576 -0.92571,-0.37576 -0.4151,0 -0.82807,0.35403 -1.02878,0.88195 -0.18443,0.48507 -0.45831,0.87951 -0.60863,0.87654 -0.15033,-0.003 -0.44365,-0.12203 -0.65183,-0.26458 z m 1.59916,-4.47557 c 0.23381,-0.28172 0.37231,-0.78065 0.30778,-1.10872 -0.0645,-0.32807 -0.39514,-0.77145 -0.73468,-0.98528 -0.4497,-0.28319 -0.78503,-0.28319 -1.23473,0 -0.33954,0.21383 -0.67047,0.65886 -0.73539,0.98894 -0.0649,0.33009 -0.0302,0.82901 0.0771,1.10872 0.10734,0.27971 0.57757,0.50856 1.04498,0.50856 0.4674,0 1.04111,-0.2305 1.27492,-0.51222 z"
       id="path410" /></g></svg>
