<?xml version="1.0" encoding="UTF-8" standalone="no"?>
<!-- Created with Inkscape (http://www.inkscape.org/) -->

<svg
   width="14.82225mm"
   height="17.089828mm"
   viewBox="0 0 14.82225 17.089828"
   version="1.1"
   id="svg5"
   xml:space="preserve"
   xmlns:inkscape="http://www.inkscape.org/namespaces/inkscape"
   xmlns:sodipodi="http://sodipodi.sourceforge.net/DTD/sodipodi-0.dtd"
   xmlns="http://www.w3.org/2000/svg"
   xmlns:svg="http://www.w3.org/2000/svg"><sodipodi:namedview
     id="namedview7"
     pagecolor="#505050"
     bordercolor="#eeeeee"
     borderopacity="1"
     inkscape:showpageshadow="0"
     inkscape:pageopacity="0"
     inkscape:pagecheckerboard="0"
     inkscape:deskcolor="#505050"
     inkscape:document-units="mm"
     showgrid="false" /><defs
     id="defs2" /><g
     inkscape:label="Vrstva 1"
     inkscape:groupmode="layer"
     id="layer1"
     transform="translate(-135.0127,-193.21128)"><path
       style="fill:#000000;stroke-width:0.352778"
       d="m 141.7266,208.80184 c -0.36338,-0.82462 -0.69665,-1.89618 -0.74058,-2.38125 -0.0439,-0.48507 -0.0552,-1.40892 -0.025,-2.053 l 0.0549,-1.17107 0.78056,0.11273 0.78056,0.11273 0.0447,1.325 c 0.0246,0.72875 0.14239,1.42272 0.26184,1.54216 0.11944,0.11945 0.96699,-0.22225 1.88344,-0.75933 l 1.66628,-0.9765 -0.81301,-0.65833 c -0.44715,-0.36209 -1.22949,-0.74971 -1.73853,-0.86139 -0.50904,-0.11168 -1.88563,-0.50881 -3.05908,-0.8825 -1.17345,-0.3737 -2.49436,-0.93217 -2.93534,-1.24104 -0.44099,-0.30888 -1.26818,-1.20544 -1.83821,-1.99234 l -1.03643,-1.43074 0.58686,-0.64847 c 0.32277,-0.35665 0.80536,-0.64846 1.07242,-0.64846 0.26706,0 0.57694,0.23812 0.68862,0.52916 0.11168,0.29105 0.41133,0.52917 0.66589,0.52917 0.25456,0 0.96038,-0.27781 1.5685,-0.61736 l 1.10565,-0.61736 -0.18388,-0.95801 -0.18388,-0.95801 0.75181,-0.52659 c 0.41349,-0.28962 0.90121,-0.43424 1.08382,-0.32138 0.18261,0.11286 0.6295,0.8603 0.99309,1.66098 l 0.66108,1.45579 0.008,1.79328 c 0.004,0.98631 -0.0808,1.88186 -0.18907,1.99011 -0.10825,0.10825 -0.50512,0.11619 -0.88194,0.0176 l -0.68515,-0.17916 v -0.81783 c 0,-0.44981 -0.15648,-1.22943 -0.34774,-1.73248 l -0.34775,-0.91465 -1.41614,0.72246 c -0.77888,0.39736 -1.41615,0.82807 -1.41615,0.95714 0,0.12908 0.33988,0.59646 0.75529,1.03864 l 0.75528,0.80396 3.21347,1.08264 c 1.7674,0.59544 3.46355,1.27577 3.76921,1.51182 0.30565,0.23607 1.05956,1.1275 1.67535,1.98097 l 1.11961,1.55176 -0.39563,0.47671 c -0.2176,0.26219 -0.66821,0.47671 -1.00137,0.47671 h -0.60573 l -0.39867,-0.87499 -0.39868,-0.87499 -0.62809,0.2375 c -0.34545,0.13063 -1.14403,0.54005 -1.77462,0.90984 -0.63059,0.36978 -1.14653,0.82099 -1.14653,1.00267 0,0.18169 0.24894,0.71027 0.55319,1.17461 l 0.55318,0.84427 -0.70638,0.37804 c -0.38851,0.20793 -0.88449,0.37805 -1.10219,0.37805 -0.21769,0 -0.69312,-0.67469 -1.0565,-1.49931 z m -4.89496,-3.76199 c 0.45806,-0.37136 0.89514,-0.61332 0.9713,-0.53769 0.0762,0.0756 -0.0623,0.37945 -0.30778,0.67518 -0.24544,0.29574 -0.68252,0.5377 -0.9713,0.5377 h -0.52505 z m -1.46022,-1.79426 c 0,-0.19402 0.24749,-0.35277 0.54998,-0.35277 h 0.54999 l -0.21803,0.35277 c -0.11992,0.19403 -0.36741,0.35278 -0.54999,0.35278 -0.18257,0 -0.33195,-0.15875 -0.33195,-0.35278 z m 1.41111,-0.17639 c 0,-0.097 0.0794,-0.17638 0.17639,-0.17638 0.097,0 0.17638,0.0794 0.17638,0.17638 0,0.097 -0.0794,0.17639 -0.17638,0.17639 -0.097,0 -0.17639,-0.0794 -0.17639,-0.17639 z m 11.57552,-2.18126 c 0.25466,-0.10191 0.55893,-0.0894 0.67616,0.0278 0.11722,0.11723 -0.0911,0.20061 -0.46302,0.18529 l -0.67616,-0.0278 z m -2.39193,-3.28446 c 0.18777,-0.67782 0.34141,-1.27313 0.34141,-1.32292 0,-0.0498 0.24371,-0.0905 0.54157,-0.0905 h 0.54159 l -0.33934,0.61736 c -0.18664,0.33955 -0.58399,0.93486 -0.88299,1.32292 l -0.54365,0.70555 z"
       id="path362" /></g></svg>
