<?xml version="1.0" encoding="UTF-8" standalone="no"?>
<!-- Created with Inkscape (http://www.inkscape.org/) -->

<svg
   width="14.059784mm"
   height="14.092148mm"
   viewBox="0 0 14.059784 14.092148"
   version="1.1"
   id="svg5"
   xml:space="preserve"
   xmlns:inkscape="http://www.inkscape.org/namespaces/inkscape"
   xmlns:sodipodi="http://sodipodi.sourceforge.net/DTD/sodipodi-0.dtd"
   xmlns="http://www.w3.org/2000/svg"
   xmlns:svg="http://www.w3.org/2000/svg"><sodipodi:namedview
     id="namedview7"
     pagecolor="#505050"
     bordercolor="#eeeeee"
     borderopacity="1"
     inkscape:showpageshadow="0"
     inkscape:pageopacity="0"
     inkscape:pagecheckerboard="0"
     inkscape:deskcolor="#505050"
     inkscape:document-units="mm"
     showgrid="false" /><defs
     id="defs2" /><g
     inkscape:label="Vrstva 1"
     inkscape:groupmode="layer"
     id="layer1"
     transform="translate(-154.78701,-192.93856)"><path
       style="fill:#000000;stroke-width:0.264583"
       d="m 164.03832,203.57507 -3.26137,-3.45564 -0.0304,-0.52149 c -0.0167,-0.28681 -0.10801,-0.59907 -0.20285,-0.6939 -0.0948,-0.0948 -0.31331,-0.0315 -0.48551,0.14066 -0.1722,0.1722 -0.56165,0.31309 -0.86543,0.31309 h -0.55235 l -1.24682,1.26586 -1.24683,1.26586 v 0.9831 c 0,0.54071 -0.10337,0.9831 -0.22971,0.9831 -0.12635,0 -0.43229,-0.72196 -0.67988,-1.60435 l -0.45015,-1.60434 0.33486,-0.44618 c 0.18418,-0.24539 0.73083,-0.87055 1.21478,-1.38924 0.48394,-0.51869 0.9301,-1.20374 0.99146,-1.52235 0.0614,-0.3186 0.18188,-0.69305 0.26782,-0.83211 0.0859,-0.13905 0.006,-0.49284 -0.17684,-0.78619 l -0.33309,-0.53336 0.50677,-0.37057 0.50678,-0.37056 0.41266,0.49177 0.41267,0.49177 1.45521,-0.73685 c 0.80036,-0.40526 1.81364,-0.95459 2.25174,-1.22071 l 0.79653,-0.48387 1.38628,0.59636 c 0.76245,0.328 1.38628,0.70076 1.38628,0.82836 0,0.1276 -0.46812,0.232 -1.04026,0.232 h -1.04026 l -1.19183,0.99219 c -0.65551,0.5457 -1.19942,1.19352 -1.2087,1.43959 -0.009,0.24608 -0.14171,0.52457 -0.2943,0.61887 l -0.27743,0.17146 0.31273,0.37682 c 0.172,0.20724 0.47145,0.34547 0.66544,0.30717 0.19399,-0.0383 1.77956,1.41864 3.5235,3.23765 l 3.17078,3.30729 0.0131,0.58032 0.0131,0.5803 -0.58803,0.41188 c -0.32342,0.22653 -0.67151,0.41188 -0.77353,0.41188 -0.10202,0 -1.6531,-1.55504 -3.44686,-3.45564 z"
       id="path332" /></g></svg>
