<?xml version="1.0" encoding="UTF-8" standalone="no"?>
<!-- Created with Inkscape (http://www.inkscape.org/) -->

<svg
   width="16.733521mm"
   height="13.811386mm"
   viewBox="0 0 16.733521 13.811386"
   version="1.1"
   id="svg5"
   xml:space="preserve"
   inkscape:export-filename="scientific.svg"
   inkscape:export-xdpi="96"
   inkscape:export-ydpi="96"
   xmlns:inkscape="http://www.inkscape.org/namespaces/inkscape"
   xmlns:sodipodi="http://sodipodi.sourceforge.net/DTD/sodipodi-0.dtd"
   xmlns="http://www.w3.org/2000/svg"
   xmlns:svg="http://www.w3.org/2000/svg"><sodipodi:namedview
     id="namedview7"
     pagecolor="#505050"
     bordercolor="#eeeeee"
     borderopacity="1"
     inkscape:showpageshadow="0"
     inkscape:pageopacity="0"
     inkscape:pagecheckerboard="0"
     inkscape:deskcolor="#505050"
     inkscape:document-units="mm"
     showgrid="false" /><defs
     id="defs2" /><g
     inkscape:label="Vrstva 1"
     inkscape:groupmode="layer"
     id="layer1"
     transform="translate(-210.10495,-186.03288)"><path
       style="fill:#000000;stroke-width:0.352778"
       d="m 211.66405,199.60911 c -0.12935,-0.12935 -0.23519,-0.6056 -0.23519,-1.05833 v -0.82315 h 0.35278 0.35278 v -1.04097 c 0,-0.57253 -0.1719,-1.84253 -0.38201,-2.82222 l -0.38201,-1.78125 h -0.45881 -0.45881 l -0.17391,-0.90975 -0.17391,-0.90975 0.39737,-0.11912 c 0.21855,-0.0655 0.80699,-0.20801 1.30763,-0.31667 l 0.91026,-0.19754 -0.15655,-1.06664 -0.15655,-1.06664 h 0.7015 0.70149 l 0.20078,1.00387 0.20078,1.00388 3.05774,-0.45209 c 1.68175,-0.24865 3.28453,-0.53912 3.56172,-0.64549 l 0.50397,-0.1934 -0.10242,-0.96321 -0.10243,-0.96321 0.62088,-0.12727 0.62087,-0.12728 0.21607,1.08036 0.21607,1.08036 1.10312,-0.0837 1.10312,-0.0837 0.11927,0.84205 0.11928,0.84205 -0.3996,0.24697 -0.3996,0.24697 0.38512,2.41077 c 0.21182,1.32592 0.46221,2.53549 0.55642,2.68793 0.0942,0.15245 0.38493,0.19519 0.64602,0.095 l 0.47472,-0.18217 0.16324,1.1122 0.16323,1.1122 -0.38467,0.13434 c -0.21157,0.0739 -3.44588,0.61481 -7.18736,1.20205 -3.74148,0.58723 -6.92971,1.0677 -7.08496,1.0677 -0.15524,0 -0.38809,-0.10584 -0.51744,-0.23519 z m 6.69439,-4.48609 0.74197,0.19404 0.24526,-1.35236 c 0.13489,-0.74379 0.33618,-1.74922 0.44731,-2.23429 l 0.20205,-0.88194 -0.96155,0.88194 -0.96156,0.88194 -0.65698,-0.10719 -0.65698,-0.1072 -0.39249,1.51831 c -0.21587,0.83507 -0.48127,1.83581 -0.58978,2.22386 l -0.19729,0.70556 1.01904,-0.95835 1.01902,-0.95834 z"
       id="path376" /></g></svg>
