<?xml version="1.0" encoding="UTF-8" standalone="no"?>
<!-- Created with Inkscape (http://www.inkscape.org/) -->

<svg
   width="12.937943mm"
   height="15.437637mm"
   viewBox="0 0 12.937943 15.437637"
   version="1.1"
   id="svg5"
   xml:space="preserve"
   inkscape:export-filename="scientific.svg"
   inkscape:export-xdpi="96"
   inkscape:export-ydpi="96"
   inkscape:version="1.2.2 (732a01da63, 2022-12-09)"
   sodipodi:docname="icons.svg"
   xmlns:inkscape="http://www.inkscape.org/namespaces/inkscape"
   xmlns:sodipodi="http://sodipodi.sourceforge.net/DTD/sodipodi-0.dtd"
   xmlns="http://www.w3.org/2000/svg"
   xmlns:svg="http://www.w3.org/2000/svg"><sodipodi:namedview
     id="namedview7"
     pagecolor="#505050"
     bordercolor="#eeeeee"
     borderopacity="1"
     inkscape:showpageshadow="0"
     inkscape:pageopacity="0"
     inkscape:pagecheckerboard="0"
     inkscape:deskcolor="#505050"
     inkscape:document-units="mm"
     showgrid="false"
     inkscape:zoom="2.587745"
     inkscape:cx="545.84205"
     inkscape:cy="666.79678"
     inkscape:window-width="2560"
     inkscape:window-height="1351"
     inkscape:window-x="2551"
     inkscape:window-y="-9"
     inkscape:window-maximized="1"
     inkscape:current-layer="layer1" /><defs
     id="defs2" /><g
     inkscape:label="Vrstva 1"
     inkscape:groupmode="layer"
     id="layer1"
     transform="translate(-213.90055,-164.58589)"><path
       style="fill:#000000;stroke-width:0.352778"
       d="m 219.94002,179.70777 c -0.39866,-0.16145 -1.2321,-0.87129 -1.85208,-1.57741 -0.91677,-1.04414 -1.12724,-1.58547 -1.12724,-2.89924 0,-1.00184 0.28954,-2.13055 0.76232,-2.97175 l 0.76231,-1.35636 -0.85051,-1.62947 c -0.46778,-0.8962 -1.12832,-1.78148 -1.46787,-1.96727 -0.33955,-0.1858 -0.61736,-0.57242 -0.61736,-0.85916 0,-0.28673 0.71089,-0.86671 1.57976,-1.28884 0.86887,-0.42213 1.68246,-0.66481 1.80798,-0.53928 0.12553,0.12552 0.22717,0.6714 0.22586,1.21306 -10e-4,0.54166 0.36747,1.71732 0.81949,2.61258 l 0.82187,1.62775 1.56398,0.17628 c 0.86019,0.097 1.96668,0.47572 2.45886,0.8417 0.49218,0.36598 1.14602,1.18674 1.45298,1.82391 0.30696,0.63718 0.55811,1.68526 0.55811,2.32908 0,0.64382 -0.36035,1.71 -0.80078,2.36929 -0.44044,0.65928 -1.35325,1.47626 -2.02848,1.81551 -0.67523,0.33924 -1.70394,0.60699 -2.28602,0.59499 -0.58208,-0.012 -1.38451,-0.15391 -1.78318,-0.31537 z m 4.08593,-1.32122 c 0.47974,-0.33065 1.06564,-0.84658 1.302,-1.14653 0.23636,-0.29994 0.4348,-1.23522 0.44098,-2.0784 0.007,-0.99452 -0.24285,-1.88984 -0.71206,-2.54878 -0.41528,-0.58321 -1.30196,-1.18913 -2.08221,-1.42289 -1.15839,-0.34707 -1.55925,-0.30933 -2.71631,0.25573 -0.89051,0.43488 -1.58537,1.12974 -2.02025,2.02025 -0.56486,1.15666 -0.60273,1.55814 -0.25609,2.7151 0.22373,0.74675 0.82124,1.68375 1.32781,2.08221 0.5924,0.46598 1.44248,0.72448 2.38246,0.72448 0.80379,0 1.85394,-0.27053 2.33367,-0.60117 z m -4.26229,-0.7546 -0.80297,-0.65021 1.13908,-0.0324 c 0.62649,-0.0178 1.71458,-0.33105 2.41798,-0.69608 0.7034,-0.36503 1.34393,-0.85878 1.42341,-1.09721 0.0824,-0.24734 -0.36279,-0.12424 -1.03673,0.28663 -0.64968,0.39609 -1.76717,0.72076 -2.48333,0.72148 -0.71615,7e-4 -1.38519,-0.13314 -1.48676,-0.29748 -0.10157,-0.16433 0.24625,-0.70056 0.77293,-1.19161 0.52668,-0.49106 1.30435,-1.07097 1.72815,-1.28871 0.42381,-0.21774 1.31964,-0.39588 1.99073,-0.39588 0.78721,0 1.29616,0.19801 1.43431,0.55802 0.11777,0.30691 0.21413,1.10788 0.21413,1.77992 0,0.82696 -0.27988,1.50179 -0.86591,2.08781 -0.62593,0.62594 -1.2506,0.86592 -2.25397,0.86592 -0.82306,0 -1.71492,-0.26467 -2.19105,-0.65022 z m -5.62172,-3.40256 c -0.35286,-0.42516 -0.32753,-0.5665 0.13319,-0.74329 0.3129,-0.12007 0.80703,-0.12693 1.09807,-0.0152 0.29104,0.11168 0.52917,0.44616 0.52917,0.74329 0,0.29713 -0.29807,0.54024 -0.66236,0.54024 -0.3643,0 -0.85843,-0.23625 -1.09807,-0.525 z m 1.76043,-1.59167 c 0,-0.19403 0.16812,-0.35278 0.37359,-0.35278 0.20548,0 0.27549,0.15875 0.15557,0.35278 -0.11991,0.19403 -0.28803,0.35278 -0.37359,0.35278 -0.0856,0 -0.15557,-0.15875 -0.15557,-0.35278 z m 7.52592,-3.76296 c 0.12935,-0.12935 0.34102,-0.12935 0.47037,0 0.12935,0.12935 0.0235,0.23518 -0.23518,0.23518 -0.2587,0 -0.36454,-0.10583 -0.23519,-0.23518 z m -1.87608,-0.50389 c 0.003,-0.27261 0.15511,-0.73245 0.33809,-1.02187 0.23538,-0.3723 0.44261,-0.4163 0.70849,-0.15041 0.26589,0.26589 0.167,0.56477 -0.33809,1.02187 -0.54024,0.48891 -0.71258,0.5255 -0.70849,0.15041 z"
       id="path394" /></g></svg>
