<?xml version="1.0" encoding="UTF-8" standalone="no"?>
<!-- Created with Inkscape (http://www.inkscape.org/) -->

<svg
   width="17.693069mm"
   height="15.201126mm"
   viewBox="0 0 17.693069 15.201126"
   version="1.1"
   id="svg5"
   xml:space="preserve"
   inkscape:export-filename="scientific.svg"
   inkscape:export-xdpi="96"
   inkscape:export-ydpi="96"
   xmlns:inkscape="http://www.inkscape.org/namespaces/inkscape"
   xmlns:sodipodi="http://sodipodi.sourceforge.net/DTD/sodipodi-0.dtd"
   xmlns="http://www.w3.org/2000/svg"
   xmlns:svg="http://www.w3.org/2000/svg"><sodipodi:namedview
     id="namedview7"
     pagecolor="#505050"
     bordercolor="#eeeeee"
     borderopacity="1"
     inkscape:showpageshadow="0"
     inkscape:pageopacity="0"
     inkscape:pagecheckerboard="0"
     inkscape:deskcolor="#505050"
     inkscape:document-units="mm"
     showgrid="false" /><defs
     id="defs2" /><g
     inkscape:label="Vrstva 1"
     inkscape:groupmode="layer"
     id="layer1"
     transform="translate(-182.0035,-173.46324)"><path
       style="fill:#000000;stroke-width:0.352778"
       d="m 190.82293,188.33624 -0.70555,-0.30319 0.76072,-0.0248 0.76072,-0.0248 -0.18303,-0.69993 -0.18304,-0.69993 -1.28324,-0.35643 c -0.70578,-0.19605 -1.48168,-0.35733 -1.72421,-0.35841 -0.24254,-0.001 -0.44038,-0.12103 -0.43966,-0.26655 7.4e-4,-0.14552 0.2929,-0.74271 0.64928,-1.3271 l 0.64796,-1.06251 2.74238,-1.33789 2.74237,-1.33789 -0.2394,-1.12737 c -0.13167,-0.62006 -0.32346,-1.6073 -0.42621,-2.19386 l -0.18681,-1.06649 0.67628,-0.83517 0.67628,-0.83517 1.73814,0.3264 1.73814,0.32639 -0.0895,1.13429 -0.0895,1.13429 h 0.50969 c 0.28033,0 0.59895,0.14442 0.70804,0.32094 0.1091,0.17652 0.0956,0.58867 -0.0299,0.91589 l -0.2283,0.59494 -1.00062,-0.20012 -1.00061,-0.20012 -0.39615,0.74021 -0.39615,0.74021 0.4774,0.30218 c 0.26256,0.16619 0.61752,0.35147 0.78879,0.41171 0.17127,0.0602 0.20379,0.44855 0.0723,0.86291 l -0.23912,0.75339 -1.2188,-0.19778 -1.21881,-0.19779 v 0.37008 c 0,0.20355 -0.0909,0.60685 -0.2019,0.89623 l -0.20191,0.52615 0.75164,0.23856 0.75163,0.23856 -0.10876,0.76345 -0.10876,0.76345 -1.2578,-0.0345 -1.25779,-0.0345 -0.78121,1.35738 c -0.42967,0.74656 -0.89553,1.34622 -1.03526,1.33258 -0.13973,-0.0136 -0.57155,-0.16121 -0.95961,-0.32796 z m -2.46944,-0.70556 -0.70556,-0.30319 h 0.52917 c 0.29104,0 0.84667,0.13644 1.23472,0.30319 l 0.70556,0.30319 h -0.52917 c -0.29104,0 -0.84666,-0.13643 -1.23472,-0.30319 z m -3.70417,-1.01936 -1.94027,-0.59742 -0.11141,-0.76897 c -0.0613,-0.42293 0.0429,-1.04471 0.23153,-1.38174 l 0.34293,-0.61279 -0.5843,-0.43503 -0.58431,-0.43503 0.40225,-0.63802 0.40226,-0.63803 1.08481,0.0879 1.08481,0.0879 0.3929,-0.73415 0.39291,-0.73415 -0.59618,-0.43594 -0.59617,-0.43593 0.56208,-0.56208 0.56209,-0.56209 0.76451,0.19993 0.76452,0.19992 0.46777,-0.63972 0.46778,-0.63973 -0.59541,-0.43537 -0.59541,-0.43537 0.46802,-0.56394 0.46802,-0.56393 0.81308,0.20407 0.81308,0.20407 0.61671,-0.94122 0.61671,-0.94122 1.26387,0.2368 c 0.69513,0.13023 1.46885,0.35132 1.71938,0.49131 l 0.45549,0.25451 -0.72608,0.92307 c -0.39935,0.50769 -1.83078,1.43226 -3.18095,2.05459 l -2.45486,1.13152 0.18692,2.50937 0.18692,2.50937 -0.68977,0.86239 -0.68976,0.8624 -1.85161,-0.42741 c -1.01838,-0.23507 -1.92682,-0.35218 -2.01876,-0.26024 -0.0919,0.0919 -0.0746,0.4082 0.0384,0.70282 0.11305,0.29462 0.92911,0.71787 1.81346,0.94055 0.88436,0.22268 1.69396,0.5441 1.79913,0.71427 0.10516,0.17016 0.14215,0.29382 0.0822,0.2748 -0.06,-0.019 -0.98214,-0.30343 -2.0493,-0.632 z m 4.44088,-4.57468 c -0.1,-0.16175 -0.28303,-0.92743 -0.40682,-1.70151 l -0.22505,-1.40742 1.9857,-0.94018 c 1.09213,-0.5171 2.12079,-0.94018 2.28592,-0.94018 0.16512,0 0.47017,0.66956 0.67789,1.48792 0.20772,0.81836 0.3461,1.51392 0.3075,1.54569 -0.0386,0.0318 -1.05415,0.55097 -2.25678,1.15377 -1.20263,0.60281 -2.26839,0.96367 -2.36836,0.80191 z m 2.45729,-2.19781 c 0.13036,-0.21093 0.0603,-0.56018 -0.15557,-0.77611 l -0.3926,-0.39259 -0.39259,0.39259 c -0.21593,0.21593 -0.28594,0.56518 -0.15557,0.77611 0.13037,0.21094 0.37704,0.38352 0.54816,0.38352 0.17113,0 0.4178,-0.17258 0.54817,-0.38352 z"
       id="path314" /></g></svg>
