<?xml version="1.0" encoding="UTF-8" standalone="no"?>
<!-- Created with Inkscape (http://www.inkscape.org/) -->

<svg
   width="16.609268mm"
   height="16.101028mm"
   viewBox="0 0 16.609268 16.101028"
   version="1.1"
   id="svg5"
   xml:space="preserve"
   xmlns:inkscape="http://www.inkscape.org/namespaces/inkscape"
   xmlns:sodipodi="http://sodipodi.sourceforge.net/DTD/sodipodi-0.dtd"
   xmlns="http://www.w3.org/2000/svg"
   xmlns:svg="http://www.w3.org/2000/svg"><sodipodi:namedview
     id="namedview7"
     pagecolor="#505050"
     bordercolor="#eeeeee"
     borderopacity="1"
     inkscape:showpageshadow="0"
     inkscape:pageopacity="0"
     inkscape:pagecheckerboard="0"
     inkscape:deskcolor="#505050"
     inkscape:document-units="mm"
     showgrid="false" /><defs
     id="defs2" /><g
     inkscape:label="Vrstva 1"
     inkscape:groupmode="layer"
     id="layer1"
     transform="translate(-160.54215,-215.10587)"><path
       style="fill:#000000;stroke-width:0.352778"
       d="m 166.3729,230.84894 c -0.46037,-0.18429 -1.4371,-0.81032 -2.17051,-1.39119 -0.73341,-0.58087 -1.66642,-1.69492 -2.07337,-2.47566 -0.40695,-0.78074 -0.7399,-2.0179 -0.7399,-2.74922 0,-0.73134 0.1409,-1.48051 0.31312,-1.66484 0.17222,-0.18432 0.42073,-0.69133 0.55224,-1.12667 0.1957,-0.64782 0.12959,-0.7495 -0.36414,-0.56004 -0.37857,0.14527 -0.77571,-0.004 -1.06629,-0.40175 -0.38393,-0.52506 -0.3783,-0.79709 0.033,-1.59243 0.27281,-0.52756 0.90825,-1.22929 1.41208,-1.55942 0.5499,-0.36031 1.20543,-0.50838 1.64002,-0.37044 0.52768,0.16748 0.68152,0.45178 0.56743,1.04863 l -0.15654,0.81886 1.82452,-0.0427 c 1.30411,-0.0305 2.19997,0.1788 3.14082,0.73392 0.72397,0.42715 1.3774,0.77664 1.45208,0.77664 0.0747,0 -0.24999,-0.67469 -0.72147,-1.49931 -0.47149,-0.82462 -0.85916,-1.94085 -0.86149,-2.48052 -0.002,-0.54389 0.22837,-1.07047 0.51768,-1.18149 0.28707,-0.11016 1.24119,0.14789 2.12027,0.57345 0.87907,0.42555 2.14929,1.44612 2.8227,2.26793 0.67341,0.82181 1.55747,2.24718 1.96456,3.1675 0.4071,0.92031 0.65325,1.89985 0.54699,2.17675 -0.10626,0.27691 -0.60549,0.50346 -1.10941,0.50346 -0.50391,0 -1.26296,-0.17858 -1.68676,-0.39686 -0.42381,-0.21827 -1.13457,-0.7286 -1.57946,-1.13406 l -0.80891,-0.7372 0.91596,2.0007 c 0.69744,1.52343 0.85987,2.29964 0.68087,3.2538 -0.1293,0.6892 -0.5388,1.63921 -0.91001,2.11112 -0.3712,0.47191 -1.02056,0.96772 -1.44301,1.1018 -0.42245,0.13409 -0.98528,0.46097 -1.25072,0.72641 -0.26544,0.26545 -0.98722,0.47257 -1.60395,0.46026 -0.61673,-0.0123 -1.498,-0.17314 -1.95838,-0.35742 z m 5.55193,-3.87395 c 0.34035,-0.60893 0.42443,-1.32836 0.25859,-2.21241 -0.13517,-0.72053 -0.72159,-1.85198 -1.30314,-2.51433 -0.58155,-0.66235 -1.76903,-1.47606 -2.63882,-1.80824 -1.25579,-0.47959 -1.76199,-0.5217 -2.4582,-0.20448 -0.48222,0.21971 -1.05311,0.78654 -1.26866,1.25962 -0.21707,0.4764 -0.28931,1.40708 -0.16193,2.08607 0.1265,0.67426 0.56893,1.65681 0.98318,2.18346 0.41425,0.52663 1.24352,1.2606 1.84281,1.63105 0.74009,0.45747 1.59521,0.64274 2.66572,0.57757 1.27075,-0.0774 1.6738,-0.27078 2.08045,-0.99831 z m -3.03918,0.46821 c -0.24254,-0.0846 -0.44098,-0.37872 -0.44098,-0.65359 0,-0.29791 0.35624,-0.49977 0.88195,-0.49977 0.51866,0 0.88194,0.20242 0.88194,0.49142 0,0.27029 -0.19844,0.5644 -0.44097,0.65359 -0.24253,0.0892 -0.63941,0.093 -0.88194,0.008 z m -0.98914,-2.59521 c -0.13037,-0.21094 -0.0604,-0.56019 0.15557,-0.77611 0.28827,-0.28828 0.49691,-0.28828 0.78519,0 0.21592,0.21592 0.28593,0.56517 0.15557,0.77611 -0.13037,0.21093 -0.37704,0.38351 -0.54817,0.38351 -0.17112,0 -0.41779,-0.17258 -0.54816,-0.38351 z m 0.11552,-1.64281 c -0.529,-0.32804 -1.03995,-0.80006 -1.13546,-1.04894 -0.0955,-0.24888 -0.0823,-0.69064 0.0294,-0.98168 0.11169,-0.29104 0.48217,-0.52917 0.8233,-0.52917 0.34113,0 1.03852,0.32903 1.54976,0.73116 0.54808,0.43113 0.92952,1.08257 0.92952,1.5875 0,0.58396 -0.19638,0.85336 -0.61736,0.84696 -0.33955,-0.005 -1.05018,-0.27779 -1.57917,-0.60583 z m 7.16857,-1.76604 c -0.37771,-0.7276 -1.14407,-1.81513 -1.70303,-2.41674 -0.55897,-0.6016 -1.44873,-1.37717 -1.97727,-1.72348 -0.52854,-0.34631 -1.05677,-0.53387 -1.17384,-0.41679 -0.11708,0.11707 -0.0259,0.65452 0.20261,1.19431 0.22851,0.5398 0.84795,1.4577 1.37653,2.03979 0.52858,0.58208 1.41627,1.41552 1.97264,1.85208 0.55637,0.43656 1.23153,0.79375 1.50034,0.79375 0.3813,0 0.33777,-0.29086 -0.19798,-1.32292 z"
       id="path408" /></g></svg>
